<?xml version="1.0" encoding="UTF-8"?>
<svg version="1.1" viewBox="0 0 2048 1913" width="1280" height="1280" xmlns="http://www.w3.org/2000/svg">
<path transform="translate(696)" d="m0 0h9v2h8l71 10 84 16 54 8 50 6 12 1 25 1h25l28-1 47-5 63-9 27-5 51-11 37-6 24-3 33-2 1-2 2 3 16 3 32 8 60 17 27 7 28 8 31 9 35 9 41 12 30 8 24 7 9 4 5 3 13 13 7 8 14 14v2h2l7 8 10 10 7 8 16 16 7 8 17 17 7 8 10 10v2l3 1 7 8 9 9 7 8 17 17 7 8 17 17 7 8 13 13 7 8 13 13v2h2l7 8 13 13 7 8 14 14 7 8 17 17 7 8 11 11 7 8 23 23 8 7 3 2v2l4 2 7 6 2 1-1 5-8 8-9 11-10 11-9 11-10 11-9 11-13 14-9 11-12 13-9 11-11 12-7 8-24 28-11 12-9 11-13 14-9 11-10 11-7 8-13 15-9 10-7 8-11 13-9 10-8 9-4-1-13-12-11-9-4-1-10-1-44-8-22-5-5 47-7 66-8 101-8 118-4 81-2 52-1 57v171l1 75 2 57 6 108 7 86 9 99v63h-24l1-3h20l-1-56-1307 1-1 55h10l3 1v2h-16l-1-17v-15l1-34 7-101 5-92 4-112 3-129 1-197v-63l-2-80-3-100-3-73-5-77-7-83v-6l1-2-39 12-32 9-11 9-14 12-4 3-4-2-10-11-9-11-12-14-13-15-9-11-10-11-9-11-7-8v-2h-2l-9-11-36-42-9-11-10-11-9-11-13-15-12-14-11-13-36-42-9-11-10-11-8-10-2-1v-5l11-8 14-13 10-8 9-9 2-3h2l2-4 13-13 7-8 11-11 7-8 7-7 7-8 9-9 3-4h2l2-4 17-17 1-2h2l2-4 14-14 7-8 16-17 8-9h2l2-4 17-17 7-8 13-13 7-8 9-9 7-8 8-8 7-8 13-13 7-8 11-11 7-8 8-8 2-3h2l2-4 13-13 7-8 12-12 7-8 11-8 14-5 27-8 35-10 47-14 42-12 37-11 50-14 44-13 30-8h4zm0 4 1 3 7 3-2-5zm9 0 2 4 11 7 13 8 16 8 16 7 41 14 32 10 23 6 46 8 39 6 24 3 51 4h50l43-5 39-7 34-8 29-9 36-12 26-10 25-11 28-14 10-6v-1h-11l-19 1-42 6-36 7-46 10-25 4-59 8-39 4-29 1h-24l-38-2-59-7-45-7-37-7-42-8-72-11zm-17 3-31 9-26 7-29 9-54 15-33 10-56 16-40 12-45 13-6 3 1 6 10 26 8 28 10 41 8 41 4 26 5 44 1 15 1 30v74l-1 35-3 42-5 50-7 50-6 31-9 38-9 27-8 16-6 11v14l8 102 4 65 4 101 2 73 1 24 1 167v41l-1 82-3 134-4 106-6 112-6 84v11l4 1h1302l1-1-1-16-7-72-7-91-7-123-1-30-2-109v-126l1-61 2-61 3-63 5-83 6-89 5-63 5-50 8-71v-8l-14-25-10-25-8-26-6-27-5-29-4-34-3-38-1-27v-72l1-34 4-59 5-49 7-50 9-50 9-44 8-35 2-8-1-5-24-7-36-10-46-13-44-12-42-12-41-11-42-12-44-11-46 23-27 11-33 13-35 11-23 7-37 9-38 7-33 4-31 2h-16l-28-1-43-4-22-3-28-6-31-6h-5l4 2 26 6 22 4-24-3-22-4-31-7-34-10-13-3-30-11-22-9-33-15-23-14-3-3zm16 3m95 44m2 1m5 2m1 1m60 13m4 1m3 1m805 27-8 30-7 32-7 43-9 47-5 36-5 47-4 62-1 31v70l2 44 4 44 4 29 7 34 7 24 9 25 8 16 7 12 4 3 25 6 39 7 10 1 13-15 12-13 9-11 10-11 7-8 12-14 9-10 7-8 9-10 9-11 11-12 7-8 11-13 9-10 9-11 10-11 7-8 9-10 9-11 11-12 9-11 11-12 7-8 11-13 9-10 9-11 10-11-2-4-14-14-1-2h-2l-2-4-11-11-7-8-24-24-7-8-13-13-7-8-11-11-7-8-14-14-7-8-21-21-7-8-9-9-7-8-13-13-7-8-15-15-7-8-19-19-7-8-11-11-7-8-14-14-7-8-16-16-7-8-14-14-7-8-8-8zm-1319 6-19 19-7 8-13 13-7 8-10 10-7 8-7 7-7 8-13 13-7 8-11 11-7 8-12 12-7 8-15 16-12 12-7 8-15 15-7 8-8 8-7 8-14 15-11 11-7 8-17 17-7 8-9 9-7 8-15 16-8 8-7 8-19 19 1 4 10 11 9 11 11 12 9 11 13 15 24 28 9 10 9 11 36 42 11 13 36 42 13 15 36 42 11 13 9 11 8 9 16-4 34-10 18-6 5-5 8-16 6-16 7-26 9-41 6-36 6-45 4-42 3-52 1-34v-40l-2-53-4-40-6-41-8-41-12-48-7-22-9-25zm1657 347-8 10-10 11-9 11-12 13-9 11-11 12-7 8-9 10-9 11-11 12-7 8-11 13-10 11-9 11-10 11-7 8-12 14-9 10-12 14-9 10-7 8-12 14-13 15-9 10-9 11-11 12 2 4 14 12 8 7 7-6 11-12 9-11 11-12 7-8 11-13 10-11 7-8 12-14 9-10 7-8 12-14 9-10 9-11 12-13v-2h2l9-11 11-12 7-8 12-14 9-10 9-11 10-11 9-11 12-13 9-11 12-13v-4l-13-12-10-8zm-1988 1-10 8-14 12v4l13 15 9 10 9 11 12 14 11 13 13 15 9 11 10 11 9 11 9 10 9 11 12 14 13 15 9 11 9 10 9 11 10 11 9 11 12 14 13 15 9 11 10 11 9 11 9 10 6 7 4-1 22-18 1-2-9-11-10-11-9-11-11-13-13-15-9-11-10-11-9-11-9-10-9-11-12-14-13-15-9-11-10-11-8-10-9-10-9-11-26-30-11-13-13-15-8-10-10-11-9-11-9-10z" fill="#535353"/>
<path transform="translate(361,724)" d="m0 0 1 3-1 6h1l8 100 5 80 4 101 2 73 1 24 1 167v41l-1 82-3 134-4 106-6 112-7 95h1306l-1-16-7-72-7-91-7-123-1-30-2-109v-126l1-61 2-61 3-63 5-83 6-89 5-63 5-50 8-71v-8l-1-4 2 1v2h3v13l-9 80-6 70-7 94-6 94-4 87-1 28-1 57v171l1 75 2 57 6 108 7 86 9 99v63h-24l1-3h20l-1-56-1307 1-1 55h10l3 1v2h-16l-1-17v-15l1-34 7-101 5-92 4-112 3-129 1-197v-63l-2-80-3-100-3-73-5-77-7-83v-6l1-2-5-2 3-2z" fill="#7D7D7D"/>
<path transform="translate(510,55)" d="m0 0h4v2l-21 6-6 3-48 14-55 16-15 5 1 6 10 26 8 28 10 41 8 41 4 26 5 44 1 15 1 30v74l-1 35-3 42-5 50-7 50-6 31-9 38-9 27-8 16-6 11-3 2 1-7 2-6 8-18 7-21 7-30 6-27 6-36 6-45 4-42 3-52 1-34v-40l-2-53-4-40-6-41-8-41-12-48-7-22-8-23v-2l-5 2-17 17-7 8-13 13-7 8-10 10-7 8-7 7-7 8-13 13-7 8-11 11-7 8-12 12-7 8-15 16-12 12-7 8-15 15-7 8-8 8-7 8-14 15-11 11-7 8-17 17-7 8-9 9-7 8-15 16-8 8-7 8-19 19 1 4 10 11 9 11 11 12 9 11 13 15 24 28 9 10 9 11 36 42 11 13 36 42 13 15 36 42 11 13 9 11 7 8 16-4 34-10 13-4h6l-3 3-25 8-42 12-11 9-14 12-4 3-4-2-10-11-9-11-12-14-13-15-9-11-10-11-9-11-7-8v-2h-2l-9-11-36-42-9-11-10-11-9-11-13-15-12-14-11-13-36-42-9-11-10-11-8-10-2-1v-5l11-8 14-13 10-8 9-9 2-3h2l2-4 13-13 7-8 11-11 7-8 7-7 7-8 9-9 3-4h2l2-4 17-17 1-2h2l2-4 14-14 7-8 16-17 8-9h2l2-4 17-17 7-8 13-13 7-8 9-9 7-8 8-8 7-8 13-13 7-8 11-11 7-8 8-8 2-3h2l2-4 13-13 7-8 12-12 7-8 11-8 14-5 27-8 35-10 47-14zm-481 399-10 8-14 12v4l13 15 9 10 9 11 12 14 11 13 13 15 9 11 10 11 9 11 9 10 9 11 12 14 13 15 9 11 9 10 9 11 10 11 9 11 12 14 13 15 9 11 10 11 9 11 9 10 6 7 4-1 22-18 1-2-9-11-10-11-9-11-11-13-13-15-9-11-10-11-9-11-9-10-9-11-12-14-13-15-9-11-10-11-8-10-9-10-9-11-26-30-11-13-13-15-8-10-10-11-9-11-9-10z" fill="#5A5A5A"/>
<path transform="translate(696)" d="m0 0h9v2h8l71 10 84 16 54 8 50 6 12 1 25 1h25l28-1 47-5 63-9 27-5 51-11 37-6 24-3 33-2 1-2 2 3 16 3 32 8 60 17 27 7 28 8 31 9 35 9 41 12 30 8 24 7 8 4 1 4 3 1-2 1-2-1-1 3-2-3-3-1-1-3-24-7-36-10-46-13-44-12-42-12-41-11-42-12-44-11-46 23-27 11-33 13-35 11-23 7-37 9-38 7-33 4-31 2h-16l-28-1-43-4-22-3-28-6-32-6 26 6 22 4 5 1v1h-7l-22-3-22-4-31-7-34-10-13-3-30-11-22-9-33-15-23-14-3-3-9 1-28 8-26 7-29 9-54 15-33 10-21 6-3-1 18-6h5v-3l54-16 50-14 44-13 30-8h4zm0 4 1 3 7 3-2-5zm9 0 2 4 11 7 13 8 16 8 16 7 41 14 32 10 23 6 46 8 39 6 24 3 51 4h50l43-5 39-7 34-8 29-9 36-12 26-10 25-11 28-14 10-6v-1h-11l-19 1-42 6-36 7-46 10-25 4-59 8-39 4-29 1h-24l-38-2-59-7-45-7-37-7-42-8-72-11z" fill="#B2B2B2"/>
<path transform="translate(361,724)" d="m0 0 1 3-1 6h1l8 100 5 80 4 101 2 73 1 24 1 167v41l-1 82-3 134-4 106-6 112-7 95 4 1-6 1-1 6h-1l1-25 6-85 5-92 4-112 3-129 1-197v-63l-2-80-3-100-3-73-5-77-7-83v-6l1-2-5-2 3-2z" fill="#F6F6F6"/>
<path transform="translate(1673,99)" d="m0 0 4 1 1 1-1 9-8 33-4 19-7 43-9 47-5 36-5 47-4 62-1 31v70l2 44 4 44 4 29 7 34 7 24 9 25 8 16 7 12 6 3v2l7 1 2 3-18-4-6-8-10-18-10-26-8-27-7-33-6-42-4-49-1-27v-72l1-34 4-59 5-49 7-50 9-50 9-44 8-35z" fill="#4A4A4A"/>
<path transform="translate(57,423)" d="m0 0 1 3-23 23 1 4 10 11 9 11 11 12 9 11 13 15 24 28 9 10 9 11 36 42 11 13 36 42 13 15 36 42 11 13 9 11 7 8 16-4 34-10 13-4h6l-3 3-25 8-42 12-11 9-14 12-4 3-4-2-10-11-9-11-12-14-13-15-9-11-10-11-9-11-7-8v-2h-2l-9-11-36-42-9-11-10-11-9-11-13-15-12-14-11-13-36-42-9-11-10-11-8-10-2-1v-5l11-8 14-13 14-11zm-28 31-10 8-14 12v4l13 15 9 10 9 11 12 14 11 13 13 15 9 11 10 11 9 11 9 10 9 11 12 14 13 15 9 11 9 10 9 11 10 11 9 11 12 14 13 15 9 11 10 11 9 11 9 10 6 7 4-1 22-18 1-2-9-11-10-11-9-11-11-13-13-15-9-11-10-11-9-11-9-10-9-11-12-14-13-15-9-11-10-11-8-10-9-10-9-11-26-30-11-13-13-15-8-10-10-11-9-11-9-10z" fill="#4D4D4D"/>
<path transform="translate(1677,728)" d="m0 0 2 1v2h3v13l-9 80-6 70-7 94-6 94-4 87-1 28-1 57v171l1 75 2 57 6 108 7 86 6 65-1 16h-2l-7-72-7-91-7-123-1-30-2-109v-126l1-61 2-61 3-63 5-83 6-89 5-63 5-50 8-71v-8z" fill="#DFDFDF"/>
<path transform="translate(1335,10)" d="m0 0h5v3l-6 3-3 3-24 12-27 11-33 13-35 11-23 7-37 9-38 7-33 4-31 2h-16l-28-1-43-4-22-3-23-5v-2l-7-1v-2l13 1 34 5 45 4 16 1h50l43-5 39-7 34-8 29-9 36-12 26-10 25-11 28-14z" fill="#484848"/>
<path transform="translate(1677,728)" d="m0 0 2 1v2h3v13l-9 80-6 70-7 94-6 94-4 87-1 28-1 57-1 15-2 1-1-26v-24l2-61 3-63 5-83 6-89 5-63 5-50 8-71v-8z" fill="#CACACA"/>
<path transform="translate(33,446)" d="m0 0m-1 1m-2 1 2 1-4 4 1 2-10 8-14 12 2 4 12 14 9 10 9 11 12 14 11 13 13 15 9 11 10 11 9 11 9 10 9 11 12 14 13 15 9 11 9 10 9 11 10 11 9 11 12 14 13 15 9 11 10 11 9 11 9 10 5 6 4-1 22-18 4-2v4l-10 8-14 12-4 3-4-2-10-11-9-11-12-14-13-15-9-11-10-11-9-11-7-8v-2h-2l-9-11-36-42-9-11-10-11-9-11-13-15-12-14-11-13-36-42-9-11-10-11-8-10-2-1v-5l11-8 14-13z" fill="#5D5D5D"/>
<path transform="translate(709,11)" d="m0 0 7 2 15 9 16 8 16 7 41 14 32 10 23 6 46 8 7 1-1 3 7 1v1l-11-1-26-5 26 6 22 4 5 1v1h-7l-22-3-22-4-31-7-34-10-13-3-30-11-22-9-33-15-4-4 9 1-9-3-4-5z" fill="#5F5F5F"/>
<path transform="translate(320,145)" d="m0 0 1 3-16 16-7 8-7 7-7 8-13 13-7 8-11 11-7 8-12 12-7 8-15 16-12 12-7 8-15 15-7 8-8 8-7 8-14 15-11 11-7 8-17 17-7 8-9 9-7 8-15 16-11 11h-2l-7 7v-3l14-14 7-8 11-11 7-8 7-7 7-8 9-9 3-4h2l2-4 17-17 1-2h2l2-4 14-14 7-8 16-17 8-9h2l2-4 17-17 7-8 13-13 7-8 9-9 7-8 8-8 7-8 13-13 7-8 11-11 7-8 10-9zm-274 287 2 1-3 2z" fill="#636363"/>
<path transform="translate(1359,6)" d="m0 0 8 1 28 7 60 17 27 7 28 8 31 9 35 9 41 12 30 8 24 7 8 4 1 4 3 1-2 1-2-1-1 3-2-3-3-1-1-3-24-7-36-10-46-13-44-12-42-12-41-11-42-12-27-7v-2l-11-2z" fill="#818181"/>
<path transform="translate(1649,1545)" d="m0 0h1l3 50 4 70 7 86 6 65-1 16h-2l-7-72-7-91-5-86v-20z" fill="#C0C0C0"/>
<path transform="translate(374,1570)" d="m0 0h1v71l-6 112-7 95 4 1-6 1-1 6h-1l1-25 6-85 5-92 3-80z" fill="#BABABA"/>
<path transform="translate(1677,728)" d="m0 0 2 1v2h3v13l-9 80-6 70-7 94-2-4-1-18 7-95 6-60 8-71v-8z" fill="#F5F5F5"/>
<path transform="translate(1344)" d="m0 0 3 3 13 2-1 3 11 2-4 1-14-3-6 4-11 5-2-1 5-4-6-2 5-3-28 1-42 6-36 7-46 10-13 2h-12v-1h6v-2l29-5 55-12 37-6 24-3 33-2z" fill="#6F6F6F"/>
<path transform="translate(696)" d="m0 0h9l-1 6-8-2v2h-5l-6 3-28 8-26 7-29 9-54 15-33 10-21 6-3-1 18-6h5v-3l54-16 50-14 44-13 30-8h4z" fill="#777"/>
<path transform="translate(709,11)" d="m0 0 7 2 15 9 16 8 16 7 41 14 29 9v2l-8-1-9-3-16-4-10-4-4-2 2 3 5 2v1l-7-1-31-12-35-16-4-4 9 1-9-3-4-5z" fill="#555"/>
<path transform="translate(1991,537)" d="m0 0 1 3-13 14-9 11-12 13-9 11-11 12-7 8-24 28-11 12-9 11-13 14-5 6-6 3 2-4 10-11 9-11 13-14 7-8 11-13 10-11 7-9h2l2-4 9-10 7-8 9-10 9-11 11-12 5-5z" fill="#595959"/>
<path transform="translate(172,302)" d="m0 0 2 1-11 11-7 8-14 15-11 11-7 8-17 17-7 8-9 9-7 8-15 16-11 11h-2l-7 7v-3l14-14 7-8 11-11 7-8 7-7 7-8 9-9 3-4h2l2-4 17-17 1-2h2l2-4 14-14 7-8 9-8zm-126 130 2 1-3 2z" fill="#606060"/>
<path transform="translate(1645,264)" d="m0 0h1l-1 16-5 44-4 54-2 50v70l2 44 2 25v11h-1l-2-15-2-23h-1l-1-57v-67l1-24 2-23 2-32 2-16 4-36z" fill="#FEFEFE"/>
<path transform="translate(1526,54)" d="m0 0 9 1 3-1 41 11 48 14 35 9 14 5 4 4v2l3 1-2 1-2-1-1 3-2-3-3-1-1-3-24-7-36-10-46-13-40-11z" fill="#868686"/>
<path transform="translate(361,724)" d="m0 0 1 3-1 6h1l8 100 2 31v12l-2 3-2-13-5-68-5-58v-6l1-2-5-2 3-2z" fill="#CECECE"/>
<path transform="translate(1159,31)" d="m0 0h7l1 3-66 9-39 4-29 1h-24l-24-1v-1l77-3 47-5z" fill="#B0B0B0"/>
<path transform="translate(510,55)" d="m0 0h4v2l-21 6-6 3-48 14-55 16-15 5-2 2-1-5 14-5 27-8 35-10 47-14z" fill="#666"/>
<path transform="translate(1648,1136)" d="m0 0h1l1 17v16l-1 28-1 57-1 15-2 1-1-26v-24l2-61 1-21z" fill="#D0D0D0"/>
<path transform="translate(374,1570)" d="m0 0h1v71l-3 59-1 6h-1l-1-15v-17l3-71 1-29z" fill="#CBCBCB"/>
<path transform="translate(867,31)" d="m0 0h9l18 3 8-1 43 6 39 4 25 1 6 1v1h-44l-59-7-45-7z" fill="#747474"/>
<path transform="translate(1646,1425)" d="m0 0h2l1 75 1 45-1 18h-2l-2-47v-22z" fill="#FEFEFE"/>
<path transform="translate(1649,1545)" d="m0 0h1l3 50 2 37v25l-1 8h-1l-2-30-3-52v-20z" fill="#AFAFAF"/>
<path transform="translate(1359,6)" d="m0 0 8 1 28 7 60 17v2l-8-1-18-4-43-12-16-4v-2l-11-2z" fill="#717171"/>
<path transform="translate(2040,470)" d="m0 0h5l3 2-1 5-8 8-9 11-10 11-9 11-10 11-8 10h-3v-3l10-11 9-11 12-13 9-11 12-13v-4z" fill="#5C5C5C"/>
<path transform="translate(696)" d="m0 0h9l-1 6-8-2v2h-5l-6 3-28 8-26 7-10 2h-3v-2l44-13 30-8h4z" fill="#777"/>
<path transform="translate(1662,1751)" d="m0 0h2l6 65-1 16h-2l-6-62z" fill="#DFDFDF"/>
<path transform="translate(1657,972)" d="m0 0h1l1 14v18l-4 56-2-4v-28l3-47z" fill="#C9C9C9"/>
<path transform="translate(1344)" d="m0 0 3 3 13 2-1 3 11 2-4 1-14-3-6 4-11 5-2-1 5-4-6-2 5-3h-17l-8-1-1-2 33-2z" fill="#DCDCDC"/>
<path transform="translate(1669,1854)" d="m0 0 4 1v58h-24l1-3h20z" fill="#C7C7C7"/>
<path transform="translate(361,1853)" d="m0 0 2 1-1 1-1 55h10l3 1v2h-16l-1-17v-15l1-24z" fill="#A4A4A4"/>
<path transform="translate(101,377)" d="m0 0 2 1-12 12-7 8-15 16-11 11h-2l-7 7v-3l14-14 7-8 11-11 7-8 11-10zm-55 55 2 1-3 2z" fill="#696969"/>
<path transform="translate(1991,537)" d="m0 0 1 3-13 14-9 11-12 13-9 11-6 5-4 2 2-4 12-13 7-8 12-14 9-10 5-5z" fill="#525252"/>
<path transform="translate(705,2)" d="m0 0h8l13 2v2l2 1-12-1-9-1-2-1 8 8h-3l5 5 3 2 2-1v2l5 1 2 2-12-1-19-12-2-2-4-2 3-1 8 3h2l-1-2h2z" fill="#EFEFEF"/>
<path transform="translate(369,1691)" d="m0 0h1l1 15v13l-3 49h-2l-1-22 3-53z" fill="#FEFEFE"/>
<path transform="translate(1688,730)" d="m0 0 8 1 41 8 22 3 1 2 5 2 1 2-7-2-10-1-44-8-9-3-8-3z" fill="#8C8C8C"/>
<path transform="translate(221,250)" d="m0 0 1 2-7 8-15 15-7 8-15 15-3 4-7 3 2-4 12-12 3-4h2l2-4 17-17 1-2 5-3z" fill="#5A5A5A"/>
<path transform="translate(1867,679)" d="m0 0 1 2-9 11-13 14-9 11-11 12-3 3h-2l-2 1 2-4 13-14 9-11 11-12 4-5 8-7z" fill="#5D5D5D"/>
<path transform="translate(352,730)" d="m0 0h6l-3 3-25 8-40 11-1-3 8-3 36-10z" fill="#656565"/>
<path transform="translate(366,808)" d="m0 0h2l4 56v12l-2 3-2-13-3-47z" fill="#FEFEFE"/>
<path transform="translate(369,876)" d="m0 0h3l1 3 2 34-1 37-2-3-3-65z" fill="#FEFEFE"/>
<path transform="translate(823,21)" d="m0 0h8l37 7 30 5 3 2-15-1-12-2-19-2-29-6-3-1z" fill="#585858"/>
<path transform="translate(1159,31)" d="m0 0h7l1 3-50 7h-17v-2l45-6z" fill="#B8B8B8"/>
<path transform="translate(1526,54)" d="m0 0 9 1 3-1 41 11 7 2-3 1v2l-17-4-40-11z" fill="#A3A3A3"/>
<path transform="translate(786,48)" d="m0 0 10 3 9 3 19 5 4 2h8l1 4-15-3-2-1v2l-15-3-14-5 1-2-5-2z" fill="#E6E6E6"/>
<path transform="translate(414,83)" d="m0 0 3 1 2 2-45 13-5 2-2 2-1-5 14-5 27-8z" fill="#676767"/>
<path transform="translate(870,70)" d="m0 0 12 1 30 5-1 3 7 1v1l-11-1-30-6-9-1v-2z" fill="#8E8E8E"/>
<path transform="translate(1667,143)" d="m0 0h1l-1 10-4 21-6 36-1 5h-1l-1-12 3-12 3-16z" fill="#FEFEFE"/>
<path transform="translate(1655,1649)" d="m0 0h1l3 44-1 2-1 15h-1l-3-45z" fill="#FEFEFE"/>
<path transform="translate(877,75)" d="m0 0 7 1 28 6 17 3 5 1v1h-7l-22-3-22-4-10-2 4-1z" fill="#FEFEFE"/>
<path transform="translate(172,302)" d="m0 0 2 1-11 11-7 8-11 12h-3l-4 3 2-4 14-14 7-8 9-8z" fill="#989898"/>
<path transform="translate(1583,68)" d="m0 0h7l27 8 7 2-1 2h-8l-31-9z" fill="#737373"/>
<path transform="translate(867,31)" d="m0 0h9l18 3 8-1 20 3 1 2 13 2v1h-9l-55-8-5-1z" fill="#F5F5F5"/>
<path transform="translate(1204,23)" d="m0 0 3 1 1 2-23 5-13 2h-12v-1h6v-2l29-5z" fill="#9E9E9E"/>
<path transform="translate(33,446)" d="m0 0m-1 1m-2 1 2 1-4 4 1 2-10 8-14 12-3 3h-2v-5l11-8 14-13z" fill="#4F4F4F"/>
<path transform="translate(1677,728)" d="m0 0 2 1v2h3v13l-3 26h-2l-1-4 2-34z" fill="#F9F9F9"/>
<path transform="translate(1439,30)" d="m0 0 16 2 9 1 21 6-2 1v2l-11-2-33-9z" fill="#A6A6A6"/>
<path transform="translate(1943,593)" d="m0 0v3l-13 14-9 11-3 3-5 3-2 1 2-4 12-13 7-9h2l2-4z" fill="#575757"/>
<path transform="translate(1659,944)" d="m0 0 3 2v15l-2 27-2-4-1-18z" fill="#FEFEFE"/>
<path transform="translate(2040,470)" d="m0 0h5l3 2-1 5-8 8-9 11-6 4-2 1 2-4 9-10 7-8 3-3-2-4z" fill="#666"/>
<path transform="translate(1015,45)" d="m0 0h19l28 1v1l-29 1h-24l-24-1v-1z" fill="#FEFEFE"/>
<path transform="translate(788,14)" d="m0 0 13 1 25 5-3 1v2l-23-4-18-3v-1z" fill="#787878"/>
<path transform="translate(1623,79)" d="m0 0 9 1 22 6-1 3 2 1-11-2-25-7z" fill="#888"/>
<path transform="translate(788,47)" d="m0 0 7 1 28 9 10 3v2l-8-1-9-3-16-4-10-4-2-1z" fill="#474747"/>
<path transform="translate(286,750)" d="m0 0 2 1-1 3-10 8-14 12h-3l-3-2 7-4 9-8 10-8z" fill="#5D5D5D"/>
<path transform="translate(1666,1785)" d="m0 0h1l3 31-1 16h-2l-2-22z" fill="#FEFEFE"/>
<path transform="translate(1676,766)" d="m0 0 2 4v9l-3 24-2-4-1-6 3-26z" fill="#FEFEFE"/>
<path transform="translate(361,724)" d="m0 0 1 3-1 6h1l1 13v11h-1l-1 6h-1l-2-23v-6l1-2-5-2 3-2z" fill="#FBFBFB"/>
<path transform="translate(1890,653)" d="m0 0 1 2-7 8-9 10-6 7-6 3 2-4 10-11 5-5z" fill="#585858"/>
<path transform="translate(238,231)" d="m0 0 3 1-7 7-7 8-5 4-7 6-5 5-2-1 18-18 7-8z" fill="#7D7D7D"/>
<path transform="translate(1966,566)" d="m0 0v3l-7 8-12 14-8 5 2-4 12-13 5-5z" fill="#4B4B4B"/>
<path transform="translate(445,74)" d="m0 0 4 2-3 2-24 7h-6l2-3z" fill="#5F5F5F"/>
<path transform="translate(1822,730)" d="m0 0 1 3-10 11-6 7-8 5 2-4 11-12 5-5z" fill="#575757"/>
<path transform="translate(528,50)" d="m0 0h4v3l-38 11-3-1 18-6h5v-3z" fill="#B6B6B6"/>
<path transform="translate(696)" d="m0 0h9l-1 6-8-2v2h-5l-6 3h-6l1-3 12-3h4z" fill="#757575"/>
<path transform="translate(77,402)" d="m0 0 2 1-7 8-14 14h-2l-7 7v-3l10-10 9-7 8-8zm-31 30 2 1-3 2z" fill="#A2A2A2"/>
<path transform="translate(615,25)" d="m0 0h10l-3 2-27 8-4-1 5-3 8-3z" fill="#A2A2A2"/>
<path transform="translate(1231,17)" d="m0 0h6v2l-15 4-9 2h-7l3-3z" fill="#707070"/>
<path transform="translate(1261,11)" d="m0 0 3 1 3 2-27 5h-3v-2l-2-1z" fill="#959595"/>
<path transform="translate(1526,54)" d="m0 0 9 1 3-1 19 5-2 3-8-1-21-6z" fill="#A8A8A8"/>
<path transform="translate(352,730)" d="m0 0h6l-3 3-18 6h-6l2-3z" fill="#888"/>
<path transform="translate(1805,751)" d="m0 0v3l-7 7-7 8-4-1-3-4h6l11-10z" fill="#888"/>
<path transform="translate(1688,730)" d="m0 0 8 1 22 5 2 2h-10l-13-3-2-2-7-2z" fill="#767676"/>
<path transform="translate(362,1826)" d="m0 0h1v11l-1 11 4 1-6 1-1 6h-1l1-24 2-1z" fill="#FEFEFE"/>
<path transform="translate(1669,1820)" d="m0 0h1l2 20v8h-3l-1-6v-18z" fill="#8E8E8E"/>
<path transform="translate(1650,1910)" d="m0 0h20l3 1v2h-24z" fill="#6D6D6D"/>
<path transform="translate(1512,48)" d="m0 0 8 1 15 4v2l2 1-15-2-10-3z" fill="#707070"/>
<path transform="translate(2007,519)" d="m0 0v3l-11 13-4 4h-3l2-4 6-7 8-7z" fill="#565656"/>
<path transform="translate(101,377)" d="m0 0 2 1-12 12-7 8v-3l2-2v-3l7-7z" fill="#A0A0A0"/>
<path transform="translate(1901,325)" d="m0 0 7 6 1 3h2l7 8 13 13-1 2-24-24-5-6z" fill="#FEFEFE"/>
<path transform="translate(1159,31)" d="m0 0h7l1 3-21 3-4-1 3-1v-2z" fill="#bbb"/>
<path transform="translate(593,31)" d="m0 0 3 1-2 2h-3v2l-11 3h-4l-1-3z" fill="#8C8C8C"/>
<path transform="translate(552,44)" d="m0 0v3l-17 5h-3l-1-3 13-4z" fill="#747474"/>
<path transform="translate(1461,36)" d="m0 0h14l10 3-2 1v2l-11-2-11-3z" fill="#9C9C9C"/>
<path transform="translate(305,744)" d="m0 0 7 1-3 2-19 5-1-3 8-3z" fill="#BFBFBF"/>
<path transform="translate(705,2)" d="m0 0h8l13 2v2l2 1-12-1-9-1-2-1-1 3z" fill="#E7E7E7"/>
<path transform="translate(33,446)" d="m0 0m-1 1m-2 1 2 1-4 4 1 2-10 8-5 3 2-4 9-10z" fill="#7B7B7B"/>
<path transform="translate(961,42)" d="m0 0h11l12 1v1h-5v2l-18-1z" fill="#A7A7A7"/>
<path transform="translate(823,21)" d="m0 0h8l12 3 2 2h-10l-12-3z" fill="#5E5E5E"/>
<path transform="translate(1657,972)" d="m0 0h1l1 14v9l-1 5h-2v-19z" fill="#545454"/>
<path transform="translate(877,75)" d="m0 0 7 1 9 2v3l-10-1-10-2 4-1z" fill="#F6F6F6"/>
<path transform="translate(843,24)" d="m0 0 13 2 6 1-1 3-11-1-9-2z" fill="#8F8F8F"/>
<path transform="translate(709,11)" d="m0 0 7 2 11 7v2l-11-3-4-5z" fill="#636363"/>
<path transform="translate(358,1902)" d="m0 0h1l1 7 11 1 3 1v2h-16z" fill="#535353"/>
<path transform="translate(1184,27)" d="m0 0h5l-1 2-11 2h-5v2h-12v-1h6v-2z" fill="#616161"/>
<path transform="translate(900,75)" d="m0 0 12 1-1 3 7 1v1l-11-1-6-2-2-2z" fill="#aaa"/>
<path transform="translate(765,10)" d="m0 0 13 1 12 2-2 2h-7l-16-3z" fill="#646464"/>
<path transform="translate(1273,9)" d="m0 0h9v2l-8 2h-11l1-2z" fill="#6A6A6A"/>
<path transform="translate(369,1680)" d="m0 0 2 1 1 6v13l-1 6h-1l-1-15z" fill="#343434"/>
<path transform="translate(1752,742)" d="m0 0h8v2l5 2 1 2-7-2-10-1-7-1v-1z" fill="#FEFEFE"/>
<path transform="translate(172,302)" d="m0 0 2 1-11 11-5 3 1-4 11-10z" fill="#898989"/>
<path transform="translate(380,93)" d="m0 0 2 1-2 3-11 4-2 2-1-5z" fill="#959595"/>
<path transform="translate(1331,3)" d="m0 0m-20 1h20l-3 3-16-1z" fill="#FEFEFE"/>
<path transform="translate(1608,75)" d="m0 0 9 1 7 2-1 2h-8l-7-3z" fill="#707070"/>
<path transform="translate(635,20)" d="m0 0h2v2l-8 3-11 1v-2l10-3z" fill="#545454"/>
<path transform="translate(1359,6)" d="m0 0 8 1 9 2 2 3h-8v-2l-11-2z" fill="#4F4F4F"/>
<path transform="translate(1483,40)" d="m0 0 10 1 3 1 1 4-13-3z" fill="#747474"/>
<path transform="translate(1287,7)" d="m0 0h9l-1 3-13 1v-2l-3-1z" fill="#A0A0A0"/>
<path transform="translate(1349,4)" d="m0 0 11 1-1 3 11 2-4 1-13-3v-2l-4-1z" fill="#aaa"/>
<path transform="translate(510,55)" d="m0 0h4v2l-18 5h-3v-2z" fill="#585858"/>
<path transform="translate(786,48)" d="m0 0 10 3 4 2-1 2-5 1-3-2 1-1-5-2z" fill="#F8F8F8"/>
<path transform="translate(696)" d="m0 0h9l-1 6-8-2z" fill="#3E3E3E"/>
<path transform="translate(1832,720)" d="m0 0v3l-8 9h-3l-2 1 2-4z" fill="#888"/>
<path transform="translate(2015,448)" d="m0 0 2 1-2 4-12 12v-3l11-12z" fill="#aaa"/>
<path transform="translate(253,216)" d="m0 0v3l-7 8-4 4-3-1z" fill="#5B5B5B"/>
<path transform="translate(1676,94)" d="m0 0 3 1 1 4 3 1-2 1-2-1-1 3-2-3-3-1-1-4z" fill="#F2F2F2"/>
<path transform="translate(788,14)" d="m0 0 13 1-3 1v2l-16-2v-1z" fill="#A4A4A4"/>
<path transform="translate(352,730)" d="m0 0h6l-3 3-6 2h-6l2-3z" fill="#5E5E5E"/>
<path transform="translate(1839,711)" d="m0 0 1 2-6 7-7 4 2-4z" fill="#585858"/>
<path transform="translate(1583,68)" d="m0 0h7l6 2-2 1v2l-10-2z" fill="#7C7C7C"/>
<path transform="translate(1213,21)" d="m0 0h7l2 2-9 2h-7l3-3z" fill="#5A5A5A"/>
<path transform="translate(268,764)" d="m0 0 2 1-3 3 1 2-7 5-4-3 7-4z" fill="#ADADAD"/>
<path transform="translate(286,750)" d="m0 0 2 1-1 3-9 7v-3-2z" fill="#949494"/>
<path transform="translate(816,56)" d="m0 0 7 1 10 3v2l-8-1-9-3z" fill="#565656"/>
<path transform="translate(916,37)" d="m0 0h14l7 1-1 2h-8l-12-2z" fill="#626262"/>
<path transform="translate(370,857)" d="m0 0h1l1 7v12l-2 3-1-4z" fill="#2A2A2A"/>
<path transform="translate(1736,740)" d="m0 0 13 1 3 2h-15z" fill="#575757"/>
<path transform="translate(1553,60)" d="m0 0h8l4 1 1 3h-7l-4-1v-2z" fill="#777"/>
<path transform="translate(1439,28)" d="m0 0 9 1 7 2v2l-8-1-8-2z" fill="#515151"/>
<path transform="translate(238,231)" d="m0 0 3 1-6 5-8 6 2-4 7-7z" fill="#8E8E8E"/>
<path transform="translate(455,71)" d="m0 0 4 1-3 3-10 1 3-3z" fill="#525252"/>
<path transform="translate(861,28)" d="m0 0 14 1-1 2h-13z" fill="#6D6D6D"/>
<path transform="translate(558,41)" d="m0 0 3 1 1 2-9 2-1-1h-5l4-2z" fill="#A5A5A5"/>
<path transform="translate(677,7)" d="m0 0 3 1 1 2-10 2-3-2z" fill="#989898"/>
<path transform="translate(1546,57)" d="m0 0 7 1 4 2-2 2-8-1-3-2z" fill="#CDCDCD"/>
<path transform="translate(316,741)" d="m0 0 3 1 1 2-4 1h-10l2-2z" fill="#747474"/>
<path transform="translate(1971,560)" d="m0 0 1 3-5 4-5 3 2-4z" fill="#5F5F5F"/>
<path transform="translate(1647,85)" d="m0 0 7 1-1 3 2 1-11-2-3-2h6z" fill="#C4C4C4"/>
<path transform="translate(445,74)" d="m0 0 4 2-3 2-9 2 2-4z" fill="#747474"/>
<path transform="translate(2e3 531)" d="m0 0 3 1-6 7h-3v-3z" fill="#7F7F7F"/>
<path transform="translate(1666,91)" d="m0 0 8 1 2 1v2h-7l-3-1z" fill="#595959"/>
<path transform="translate(961,42)" d="m0 0h11l-2 1v2h-9z" fill="#A1A1A1"/>
<path transform="translate(898,33)" d="m0 0 9 1-1 3h-8v-3z" fill="#E6E6E6"/>
<path transform="translate(1677,756)" d="m0 0h1l1 14h-2l-1-4v-8z" fill="#363636"/>
<path transform="translate(641,17)" d="m0 0 4 2-3 2-5 1v-2l-6 1 3-2z" fill="#ABABAB"/>
<path transform="translate(414,83)" d="m0 0 3 1 2 2-10 2 2-4z" fill="#7C7C7C"/>
<path transform="translate(1138,34)" d="m0 0h7l-3 3-13 2 1-2 8-1z" fill="#FEFEFE"/>
<path transform="translate(1377,10)" d="m0 0 6 1v3l3 1-8-1-4-2z" fill="#B9B9B9"/>
</svg>
